<svg width="180" height="51" viewBox="0 0 180 51" fill="none" xmlns="http://www.w3.org/2000/svg">
<g clip-path="url(#clip0_1_14)">
<path d="M58.7933 33V14.8182H70.6186V17.5792H62.087V22.5153H70.006V25.2763H62.087V30.239H70.6896V33H58.7933ZM79.785 33.2663C78.4237 33.2663 77.2548 32.9674 76.2782 32.3697C75.3076 31.7719 74.5589 30.9463 74.0321 29.8928C73.5113 28.8333 73.2509 27.6141 73.2509 26.2351C73.2509 24.8501 73.5172 23.628 74.0499 22.5685C74.5826 21.5032 75.3342 20.6746 76.3049 20.0827C77.2814 19.485 78.4355 19.1861 79.7672 19.1861C80.874 19.1861 81.8535 19.3903 82.7058 19.7987C83.564 20.2011 84.2476 20.7723 84.7566 21.5121C85.2656 22.246 85.5556 23.1042 85.6266 24.0866H82.5549C82.4306 23.4297 82.1346 22.8822 81.6671 22.4442C81.2054 22.0004 80.5869 21.7784 79.8116 21.7784C79.1547 21.7784 78.5776 21.956 78.0804 22.3111C77.5833 22.6603 77.1956 23.1634 76.9174 23.8203C76.6452 24.4773 76.5091 25.2644 76.5091 26.1818C76.5091 27.111 76.6452 27.91 76.9174 28.5788C77.1897 29.2417 77.5714 29.7537 78.0627 30.1147C78.5598 30.4698 79.1428 30.6474 79.8116 30.6474C80.2851 30.6474 80.7083 30.5586 81.0811 30.381C81.4599 30.1976 81.7766 29.9342 82.0311 29.5909C82.2856 29.2476 82.4602 28.8304 82.5549 28.3391H85.6266C85.5497 29.3039 85.2656 30.1591 84.7743 30.9048C84.2831 31.6446 83.6143 32.2247 82.7679 32.6449C81.9216 33.0592 80.9273 33.2663 79.785 33.2663ZM91.4793 25.0099V33H88.2655V14.8182H91.4083V21.6808H91.5681C91.8877 20.9113 92.3819 20.3047 93.0507 19.8608C93.7254 19.411 94.5836 19.1861 95.6253 19.1861C96.5722 19.1861 97.3979 19.3844 98.1022 19.7809C98.8065 20.1774 99.351 20.7575 99.7357 21.521C100.126 22.2844 100.322 23.2166 100.322 24.3175V33H97.1079V24.8146C97.1079 23.8973 96.8711 23.1841 96.3976 22.6751C95.9301 22.1602 95.2731 21.9027 94.4268 21.9027C93.8586 21.9027 93.3496 22.027 92.8998 22.2756C92.4559 22.5182 92.1067 22.8704 91.8522 23.332C91.6036 23.7937 91.4793 24.353 91.4793 25.0099ZM109.546 33.2663C108.214 33.2663 107.06 32.9734 106.083 32.3874C105.107 31.8015 104.349 30.9818 103.811 29.9283C103.278 28.8748 103.012 27.6437 103.012 26.2351C103.012 24.8265 103.278 23.5924 103.811 22.533C104.349 21.4736 105.107 20.6509 106.083 20.065C107.06 19.479 108.214 19.1861 109.546 19.1861C110.877 19.1861 112.032 19.479 113.008 20.065C113.985 20.6509 114.739 21.4736 115.272 22.533C115.811 23.5924 116.08 24.8265 116.08 26.2351C116.08 27.6437 115.811 28.8748 115.272 29.9283C114.739 30.9818 113.985 31.8015 113.008 32.3874C112.032 32.9734 110.877 33.2663 109.546 33.2663ZM109.563 30.6918C110.286 30.6918 110.889 30.4935 111.375 30.0969C111.86 29.6945 112.221 29.1559 112.458 28.4812C112.7 27.8065 112.822 27.0548 112.822 26.2262C112.822 25.3917 112.7 24.6371 112.458 23.9624C112.221 23.2817 111.86 22.7402 111.375 22.3377C110.889 21.9353 110.286 21.734 109.563 21.734C108.824 21.734 108.208 21.9353 107.717 22.3377C107.232 22.7402 106.868 23.2817 106.625 23.9624C106.388 24.6371 106.27 25.3917 106.27 26.2262C106.27 27.0548 106.388 27.8065 106.625 28.4812C106.868 29.1559 107.232 29.6945 107.717 30.0969C108.208 30.4935 108.824 30.6918 109.563 30.6918ZM118.808 33V19.3636H121.879V21.6808H122.039C122.323 20.8995 122.794 20.2899 123.451 19.8519C124.108 19.408 124.892 19.1861 125.803 19.1861C126.727 19.1861 127.505 19.411 128.138 19.8608C128.777 20.3047 129.227 20.9113 129.488 21.6808H129.63C129.931 20.9232 130.44 20.3195 131.157 19.8697C131.879 19.4139 132.734 19.1861 133.722 19.1861C134.977 19.1861 136.001 19.5826 136.794 20.3757C137.587 21.1688 137.984 22.3259 137.984 23.8469V33H134.761V24.3441C134.761 23.4978 134.536 22.8793 134.086 22.4886C133.636 22.0921 133.086 21.8938 132.435 21.8938C131.66 21.8938 131.053 22.1365 130.615 22.6218C130.183 23.1012 129.967 23.7256 129.967 24.495V33H126.815V24.2109C126.815 23.5066 126.602 22.9444 126.176 22.5241C125.756 22.1039 125.205 21.8938 124.525 21.8938C124.063 21.8938 123.643 22.0122 123.264 22.2489C122.885 22.4798 122.584 22.8082 122.359 23.2344C122.134 23.6546 122.021 24.1458 122.021 24.7081V33H118.808ZM147.281 33.2663C145.914 33.2663 144.733 32.9822 143.739 32.4141C142.75 31.84 141.99 31.0291 141.457 29.9815C140.924 28.928 140.658 27.6881 140.658 26.2617C140.658 24.859 140.924 23.628 141.457 22.5685C141.996 21.5032 142.747 20.6746 143.712 20.0827C144.677 19.485 145.81 19.1861 147.112 19.1861C147.953 19.1861 148.746 19.3222 149.492 19.5945C150.243 19.8608 150.906 20.2751 151.48 20.8374C152.06 21.3996 152.516 22.1158 152.847 22.9858C153.179 23.8499 153.345 24.8797 153.345 26.0753V27.0607H142.167V24.8945H150.264C150.258 24.279 150.125 23.7315 149.864 23.2521C149.604 22.7668 149.24 22.3851 148.772 22.1069C148.311 21.8287 147.772 21.6896 147.157 21.6896C146.5 21.6896 145.923 21.8494 145.426 22.169C144.928 22.4827 144.541 22.897 144.263 23.4119C143.99 23.9209 143.851 24.4802 143.845 25.0898V26.9808C143.845 27.7739 143.99 28.4545 144.28 29.0227C144.57 29.585 144.976 30.017 145.497 30.3189C146.017 30.6148 146.627 30.7628 147.325 30.7628C147.793 30.7628 148.216 30.6977 148.595 30.5675C148.974 30.4313 149.302 30.2331 149.58 29.9727C149.859 29.7122 150.069 29.3897 150.211 29.005L153.211 29.3423C153.022 30.1354 152.661 30.8279 152.128 31.4197C151.602 32.0057 150.927 32.4614 150.104 32.7869C149.281 33.1065 148.34 33.2663 147.281 33.2663ZM162.1 33.2663C160.733 33.2663 159.552 32.9822 158.558 32.4141C157.57 31.84 156.809 31.0291 156.276 29.9815C155.744 28.928 155.477 27.6881 155.477 26.2617C155.477 24.859 155.744 23.628 156.276 22.5685C156.815 21.5032 157.567 20.6746 158.531 20.0827C159.496 19.485 160.63 19.1861 161.932 19.1861C162.772 19.1861 163.565 19.3222 164.311 19.5945C165.063 19.8608 165.725 20.2751 166.3 20.8374C166.88 21.3996 167.335 22.1158 167.667 22.9858C167.998 23.8499 168.164 24.8797 168.164 26.0753V27.0607H156.987V24.8945H165.083C165.077 24.279 164.944 23.7315 164.684 23.2521C164.423 22.7668 164.059 22.3851 163.592 22.1069C163.13 21.8287 162.592 21.6896 161.976 21.6896C161.319 21.6896 160.742 21.8494 160.245 22.169C159.748 22.4827 159.36 22.897 159.082 23.4119C158.81 23.9209 158.671 24.4802 158.665 25.0898V26.9808C158.665 27.7739 158.81 28.4545 159.1 29.0227C159.39 29.585 159.795 30.017 160.316 30.3189C160.837 30.6148 161.446 30.7628 162.145 30.7628C162.612 30.7628 163.035 30.6977 163.414 30.5675C163.793 30.4313 164.122 30.2331 164.4 29.9727C164.678 29.7122 164.888 29.3897 165.03 29.005L168.031 29.3423C167.841 30.1354 167.48 30.8279 166.948 31.4197C166.421 32.0057 165.746 32.4614 164.923 32.7869C164.101 33.1065 163.16 33.2663 162.1 33.2663ZM177.692 19.3636V21.8494H169.853V19.3636H177.692ZM171.788 16.0966H175.002V28.8984C175.002 29.3305 175.067 29.6619 175.197 29.8928C175.333 30.1177 175.511 30.2715 175.73 30.3544C175.949 30.4373 176.192 30.4787 176.458 30.4787C176.659 30.4787 176.843 30.4639 177.008 30.4343C177.18 30.4047 177.31 30.3781 177.399 30.3544L177.941 32.8668C177.769 32.926 177.523 32.9911 177.204 33.0621C176.89 33.1332 176.505 33.1746 176.05 33.1864C175.245 33.2101 174.52 33.0888 173.875 32.8224C173.229 32.5502 172.717 32.13 172.339 31.5618C171.966 30.9936 171.782 30.2834 171.788 29.4311V16.0966Z" fill="white"/>
<rect x="3" y="3" width="49" height="45" rx="22.5" fill="#0E78F9"/>
<path d="M10 15H30.2778C33.0392 15 35.2778 17.2386 35.2778 20V36H15C12.2386 36 10 33.7614 10 31V15Z" fill="#D9D9D9"/>
<path d="M31.4413 25.9567C31.046 25.7805 31.046 25.2195 31.4413 25.0433L44.2964 19.3136C44.6271 19.1662 45 19.4082 45 19.7703V31.2297C45 31.5918 44.6271 31.8338 44.2964 31.6864L31.4413 25.9567Z" fill="#D9D9D9"/>
</g>
<defs>
<clipPath id="clip0_1_14">
<rect width="180" height="51" fill="white"/>
</clipPath>
</defs>
</svg>
